<svg width="561" height="394" viewBox="0 0 561 394" fill="none" xmlns="http://www.w3.org/2000/svg">
<g clip-path="url(#clip0_1_114)">
<path fill-rule="evenodd" clip-rule="evenodd" d="M249.15 392.553V211.901H258.047V392.553H249.15ZM76.2122 392.553V211.901H85.11V392.553H76.2122Z" fill="#BABEC2"/>
<path fill-rule="evenodd" clip-rule="evenodd" d="M249.15 227.492L258.047 227.683V211.901H249.15V227.492ZM76.2122 212.479V223.759L85.11 223.95V212.449L76.2122 212.479Z" fill="black"/>
<path d="M36.3844 207.988H297.142V214.819H36.3844V207.988Z" fill="#BABEC2"/>
<path fill-rule="evenodd" clip-rule="evenodd" d="M293.475 208.245C290.268 194.751 279.094 184.779 265.818 184.779C252.542 184.779 241.368 194.751 238.161 208.245H293.475Z" fill="#B9D8D6"/>
<path fill-rule="evenodd" clip-rule="evenodd" d="M248.05 208.245C252.462 197.941 259.413 195.845 259.413 195.845C260 195.676 260.34 195.061 260.171 194.473C260 193.886 259.385 193.547 258.798 193.717C258.798 193.717 250.501 196.022 245.649 208.245H248.05Z" fill="#82B5B2"/>
<path fill-rule="evenodd" clip-rule="evenodd" d="M238.892 208.245C238.07 224.681 236.112 250.565 231.293 264.249C230.233 267.259 229.05 269.66 227.679 271.175C226.56 272.415 225.331 273.013 223.927 272.617C222.573 272.235 221.174 271.247 219.867 269.934C219.928 269.845 219.986 269.757 220.044 269.665C221.756 266.996 222.661 262.806 222.586 259.134C222.548 257.126 222.213 255.273 221.595 253.891C221.047 252.662 220.263 251.778 219.305 251.338C218.308 250.878 217.089 250.853 215.649 251.551C212.107 253.266 211.338 257.104 212.409 261.305C213.171 264.279 214.846 267.425 216.893 269.934C216.574 270.172 216.231 270.347 215.86 270.441C214.946 270.671 213.913 270.363 212.733 269.474C211.756 268.74 210.931 267.417 210.18 265.686C208.942 262.831 207.973 258.918 207.2 254.465C204.135 236.81 204.221 210.845 204.09 207.76C204.065 207.151 203.548 206.675 202.936 206.7C202.326 206.727 201.85 207.245 201.878 207.855C202.008 210.959 201.933 237.082 205.018 254.844C205.827 259.496 206.854 263.584 208.147 266.566C209.083 268.727 210.183 270.33 211.401 271.247C213.271 272.651 214.954 272.952 216.4 272.59C217.106 272.412 217.771 272.066 218.377 271.576C219.967 273.149 221.689 274.287 223.323 274.75C225.544 275.376 227.555 274.62 229.324 272.659C230.845 270.975 232.204 268.331 233.384 264.985C238.266 251.117 240.277 224.855 241.11 208.245H238.892ZM218.344 268.203C216.616 266.002 215.209 263.31 214.558 260.756C213.775 257.691 214.029 254.797 216.613 253.545C217.314 253.207 217.895 253.127 218.38 253.351C218.901 253.592 219.272 254.121 219.573 254.794C220.089 255.949 220.338 257.5 220.371 259.178C220.435 262.293 219.74 265.844 218.344 268.203ZM239.593 203.692C239.291 203.878 239.08 204.205 239.064 204.587L239.036 205.204C239.211 204.695 239.396 204.188 239.593 203.692Z" fill="#82B5B2"/>
<path d="M161.868 321.057C149.452 321.057 139.387 307.972 139.387 291.83C139.387 275.689 149.452 262.604 161.868 262.604C174.284 262.604 184.349 275.689 184.349 291.83C184.349 307.972 174.284 321.057 161.868 321.057Z" fill="white"/>
<path fill-rule="evenodd" clip-rule="evenodd" d="M161.719 259.39V264.455C173.645 264.687 182.982 277.002 182.982 291.851C182.982 306.698 173.645 319.013 161.719 319.245V324.313C176.126 324.086 188.048 309.758 188.048 291.851C188.048 273.942 176.126 259.614 161.719 259.39Z" fill="black"/>
<path fill-rule="evenodd" clip-rule="evenodd" d="M161.72 259.391L161.363 259.38C146.799 259.38 134.678 273.797 134.678 291.853C134.678 309.909 146.799 324.326 161.363 324.326L161.72 324.315V319.247L161.363 319.261C149.266 319.261 139.746 306.849 139.746 291.853C139.746 276.857 149.266 264.445 161.363 264.445L161.72 264.456V259.391Z" fill="black"/>
<path fill-rule="evenodd" clip-rule="evenodd" d="M161.139 291.18C159.865 291.18 158.829 292.213 158.829 293.49C158.829 294.764 159.865 295.799 161.139 295.799C162.415 295.799 163.451 294.764 163.451 293.49C163.451 292.213 162.415 291.18 161.139 291.18ZM157.17 288.15L149.394 273.094C149.114 272.551 149.327 271.881 149.87 271.601C150.416 271.321 151.083 271.535 151.363 272.077L159.139 287.134C159.422 287.677 159.208 288.347 158.663 288.627C158.12 288.906 157.453 288.693 157.17 288.15ZM167.48 275.755L164.523 287.425C164.373 288.018 163.772 288.375 163.177 288.225C162.584 288.076 162.227 287.472 162.376 286.879L165.331 275.212C165.481 274.617 166.084 274.26 166.677 274.409C167.27 274.559 167.63 275.162 167.48 275.755Z" fill="black"/>
<path d="M22.4069 276.381L52.901 260.724L73.509 300.86L43.0149 316.517L22.4069 276.381Z" fill="#A8CFCC"/>
<path fill-rule="evenodd" clip-rule="evenodd" d="M43.7338 311.241L38.5551 313.896C38.0096 314.176 37.3422 313.96 37.0625 313.417C36.7828 312.872 36.9988 312.204 37.5443 311.925L42.7229 309.269C43.2685 308.992 43.9359 309.205 44.2156 309.751C44.4926 310.294 44.2793 310.964 43.7338 311.241ZM40.5297 304.99L35.3483 307.643C34.8055 307.923 34.1353 307.707 33.8584 307.164C33.5787 306.622 33.7947 305.951 34.3375 305.674L39.5188 303.019C40.0616 302.739 40.729 302.955 41.0087 303.498C41.2884 304.04 41.0724 304.711 40.5297 304.99ZM37.3228 298.737L32.1442 301.393C31.5987 301.67 30.9313 301.457 30.6516 300.911C30.3719 300.368 30.5879 299.701 31.1334 299.421L36.312 296.766C36.8576 296.486 37.5249 296.702 37.8046 297.245C38.0816 297.79 37.8656 298.458 37.3228 298.737ZM34.1159 292.484L28.9373 295.14C28.3946 295.42 27.7244 295.204 27.4475 294.658C27.1678 294.115 27.3838 293.448 27.9266 293.168L33.1079 290.512C33.6507 290.233 34.3181 290.449 34.5978 290.992C34.8775 291.537 34.6615 292.205 34.1159 292.484ZM30.9119 286.231L25.7305 288.887C25.1877 289.167 24.5203 288.951 24.2406 288.405C23.9609 287.862 24.1769 287.195 24.7197 286.915L29.901 284.259C30.4438 283.98 31.114 284.196 31.391 284.738C31.6707 285.284 31.4547 285.951 30.9119 286.231ZM27.7936 280.147L22.6123 282.803C22.0695 283.082 21.4021 282.866 21.1224 282.324C20.8427 281.781 21.0587 281.111 21.6015 280.834L26.7828 278.178C27.3256 277.898 27.9958 278.114 28.2727 278.657C28.5524 279.2 28.3364 279.87 27.7936 280.147Z" fill="black"/>
<path fill-rule="evenodd" clip-rule="evenodd" d="M122.555 267.086L75.5877 278.231L78.0871 285.235L122.555 267.086Z" fill="white"/>
<path d="M74.5585 283.202L123.552 265.718L145.787 328.023L96.7932 345.508L74.5585 283.202Z" fill="#1C1C1C"/>
<path fill-rule="evenodd" clip-rule="evenodd" d="M77.7759 278.7L122.802 268.271C123.398 268.132 123.769 267.537 123.633 266.939C123.494 266.344 122.899 265.972 122.304 266.111L76.0839 276.817C75.7792 276.889 75.519 277.086 75.3667 277.357C75.2144 277.631 75.1839 277.955 75.2863 278.254L77.8064 285.671C78.003 286.249 78.6317 286.559 79.2104 286.363C79.7892 286.166 80.0994 285.535 79.9028 284.956L77.7759 278.7Z" fill="#1C1C1C"/>
<path d="M38.2891 285.603H99.8232V359.147H38.2891V285.603Z" fill="white"/>
<path fill-rule="evenodd" clip-rule="evenodd" d="M43.8723 350.778H94.7416V354.068H43.8723V350.778ZM43.8723 344.749H94.7416V348.039H43.8723V344.749ZM43.8723 338.721H94.7416V342.01H43.8723V338.721ZM43.8723 332.692H94.7416V335.982H43.8723V332.692ZM43.8723 326.663H94.7416V329.953H43.8723V326.663ZM43.8723 320.634H94.7416V323.924H43.8723V320.634ZM43.8723 314.605H94.7416V317.895H43.8723V314.605ZM43.8723 308.577H94.7416V311.867H43.8723V308.577ZM43.8723 302.548H94.7416V305.838H43.8723V302.548ZM43.8723 296.519H94.7416V299.809H43.8723V296.519ZM43.8723 290.482H94.7416V293.772H43.8723V290.482Z" fill="black"/>
<path fill-rule="evenodd" clip-rule="evenodd" d="M98.7154 358.039H68.8402C68.231 358.039 67.7325 358.535 67.7325 359.147C67.7325 359.759 68.231 360.255 68.8402 360.255H99.8232C100.435 360.255 100.931 359.759 100.931 359.147V285.603C100.931 284.991 100.435 284.495 99.8232 284.495H70.4049C69.7956 284.495 69.2971 284.991 69.2971 285.603C69.2971 286.215 69.7956 286.71 70.4049 286.71H98.7154V358.039Z" fill="black"/>
<path fill-rule="evenodd" clip-rule="evenodd" d="M39.3971 286.71H70.405C71.017 286.71 71.5127 286.215 71.5127 285.603C71.5127 284.991 71.017 284.495 70.405 284.495H38.2894C37.6774 284.495 37.1817 284.991 37.1817 285.603V359.147C37.1817 359.759 37.6774 360.255 38.2894 360.255H68.8403C69.4524 360.255 69.9481 359.759 69.9481 359.147C69.9481 358.535 69.4524 358.039 68.8403 358.039H39.3971V286.71Z" fill="black"/>
<path d="M27.3042 295.532H191.769V393.813H27.3042V295.532Z" fill="#FFD798"/>
<path fill-rule="evenodd" clip-rule="evenodd" d="M90.9559 295.533V339.504L96.1401 335.425L100.997 339.504L105.927 335.425L110.635 339.504L114.963 335.425L119.499 339.504V295.533H90.9559Z" fill="#F8BB61"/>
<path d="M448.856 84.5282C436.03 84.5282 425.633 74.1307 425.633 61.3048C425.633 48.4789 436.03 38.0814 448.856 38.0814C461.682 38.0814 472.079 48.4789 472.079 61.3048C472.079 74.1307 461.682 84.5282 448.856 84.5282Z" fill="#FFC3BB"/>
<path fill-rule="evenodd" clip-rule="evenodd" d="M461.591 80.7234C467.907 76.57 472.079 69.4208 472.079 61.3048C472.079 48.4876 461.673 38.0814 448.856 38.0814C445.966 38.0814 443.198 38.6106 440.643 39.5777L452.779 63.4136C453.684 61.8766 455.396 60.8393 457.357 60.8393C460.262 60.8393 462.62 63.1159 462.62 65.9204C462.62 68.7246 460.262 71.0015 457.357 71.0015C457.105 71.0015 456.858 70.9843 456.616 70.9514L461.591 80.7234Z" fill="black"/>
<path fill-rule="evenodd" clip-rule="evenodd" d="M455.165 319.575C467.168 320.633 482.003 320.694 499.439 318.459C511.284 316.942 550.835 304.513 540.845 252.835C538.87 242.619 528.93 217.371 486.681 215.175C474.35 214.533 388.184 204.619 353.665 242.666C352.989 243.414 352.117 244.411 351.137 245.698C339.414 251.018 305.521 269.384 306.814 303.463C306.814 303.463 309.492 341.635 359.029 358.091C362.69 366.29 366.988 375.041 372.009 384.36C372.009 384.36 360.721 387.379 357.86 393.723H444.959L439.745 377.221L445.162 378.5C445.214 384.238 450.584 389.965 455.165 394.097V319.575Z" fill="url(#paint0_linear_1_114)"/>
<path fill-rule="evenodd" clip-rule="evenodd" d="M443.651 378.143L438.835 317.174C438.787 316.565 438.254 316.111 437.644 316.158C437.034 316.205 436.579 316.739 436.627 317.349L441.386 377.609L443.651 378.143Z" fill="#1C1C1C"/>
<path fill-rule="evenodd" clip-rule="evenodd" d="M429.021 314.3L418.38 312.239C418.38 312.239 414.471 299.622 411.789 290.963C411.626 290.436 411.878 289.872 412.377 289.642C412.877 289.412 413.47 289.589 413.762 290.054C419.573 299.287 429.021 314.3 429.021 314.3Z" fill="#1C1C1C"/>
<path fill-rule="evenodd" clip-rule="evenodd" d="M455.165 319.575C457.841 319.81 433.663 315.075 419.577 310.841C418.696 310.575 417.688 310.425 417.688 310.425C417.688 310.425 418.083 311.854 418.211 312.245L435.185 364.213L361.364 363.211C361.71 363.95 362.059 364.693 362.413 365.44L435.735 366.437C435.794 366.437 435.851 366.432 435.908 366.423L439.745 377.221L441.934 377.739L420.969 313.555C432.04 316.767 443.232 319.564 455.165 321.309V319.575ZM358.99 358.077C326.03 288.072 351.751 244.89 351.137 245.698C350.289 246.083 349.323 246.538 348.259 247.061C341.444 260.326 328.647 297.437 356.074 357.063C357.024 357.409 357.999 357.747 358.99 358.077Z" fill="#1C1C1C"/>
<path fill-rule="evenodd" clip-rule="evenodd" d="M475.29 90.4844C424.049 91.031 387.484 98.0183 344.742 101.489C331.829 102.538 302.242 109.942 309.162 136.525C311.788 146.611 320.932 153.623 331.353 153.542C349.409 153.402 374.072 153.212 374.072 153.212C374.072 153.212 354.51 169.854 313.781 170.444C313.781 170.444 268.883 174.25 264.673 174.421C257.235 174.722 252.785 174.837 248.703 175.07C247.825 175.123 247.05 175.66 246.692 176.463C246.335 177.266 246.454 178.202 247.003 178.889C247.85 179.943 249.556 181.135 252.76 182.34C258.609 184.542 263.186 184.733 267.684 186.057C267.346 185.306 260.381 191.865 256.302 196.077C255.49 196.926 255.2 198.146 255.538 199.27C255.878 200.394 256.798 201.249 257.944 201.506C258.825 201.706 259.888 201.75 261.159 201.525C258.739 203.885 261.566 207.798 269.182 203.954C271.181 202.946 271.871 202.666 277.013 199.488C277.013 199.488 275.371 202.439 274.408 204.173C274.153 204.632 274.097 205.178 274.261 205.679C274.421 206.181 274.784 206.593 275.26 206.817C276.318 207.31 277.988 207.468 280.469 206.169C284.241 204.2 286.806 203.118 289.16 202.148C291.331 201.255 293.798 201.458 295.792 202.694C304.014 207.77 329.691 219.584 378.314 208.487C378.314 208.487 407.445 204.635 445.536 179.99C446.55 175.976 493.9 231.838 535.901 184.728C552.445 166.172 555.867 89.6248 475.29 90.4844Z" fill="#FFC3BB"/>
<path fill-rule="evenodd" clip-rule="evenodd" d="M276.95 199.599C284.366 189.761 289.597 189.538 289.597 189.538C290.206 189.528 290.697 189.024 290.685 188.413C290.677 187.801 290.173 187.313 289.561 187.323C289.561 187.323 282.491 187.269 273.214 201.028C273.04 201.29 272.99 201.6 273.051 201.885C274 201.331 275.244 200.581 277.013 199.488L276.95 199.599ZM261.159 201.524C261.076 201.606 271.303 192.696 272.588 191.297C276.964 186.531 280.165 184.3 282.286 183.277C283.873 182.511 284.875 182.496 284.914 182.496C284.9 182.494 284.887 182.492 284.875 182.49L284.914 182.496C285.501 182.572 286.05 182.167 286.147 181.577C286.246 180.974 285.836 180.404 285.233 180.304C285.233 180.304 280.572 179.33 270.954 189.798C269.525 191.356 262.536 197.977 257.692 201.439C257.775 201.465 257.858 201.487 257.944 201.506C258.825 201.706 259.888 201.75 261.159 201.524ZM281.716 173.116C279.683 173.281 277.722 173.44 275.897 173.586C274.324 174.711 272.713 176.228 271.253 178.273C270.237 179.698 268.251 182.591 264.704 185.317C265.612 185.511 266.509 185.722 267.401 185.975C270.359 183.416 272.106 180.892 273.056 179.56C275.911 175.557 279.417 173.843 281.716 173.116Z" fill="#1C1C1C"/>
<path fill-rule="evenodd" clip-rule="evenodd" d="M387.791 206.444C399.365 203.395 420.518 196.178 445.536 179.99C445.995 176.597 494.602 233.516 535.901 184.728C552.192 165.483 555.867 89.6248 475.29 90.4844C424.049 91.0311 387.484 98.0183 344.742 101.489C331.829 102.538 302.242 109.942 309.162 136.525C311.788 146.611 320.932 153.623 331.353 153.542C349.408 153.402 374.072 153.212 374.072 153.212C374.072 153.212 360.137 165.067 331.306 169.12L337.775 213.06C345.063 213.215 353.316 212.766 362.579 211.431C370.209 209.916 378.957 208.183 387.791 206.444Z" fill="url(#paint1_linear_1_114)"/>
<path fill-rule="evenodd" clip-rule="evenodd" d="M453.141 185.455C459.419 177.936 462.691 169.625 464.16 165.024C464.268 164.638 464.097 164.229 463.746 164.036C463.396 163.842 462.958 163.916 462.69 164.213C455.721 171.742 447.078 178.754 445.719 179.844C446.417 179.889 449.048 182.23 453.141 185.455ZM374.034 153.243L374.031 153.246L374.02 153.255L374.001 153.271L373.99 153.279L373.982 153.288L373.968 153.299L373.946 153.316L373.926 153.331L373.91 153.346L373.896 153.357L373.876 153.373L373.843 153.398L373.818 153.419L373.804 153.43L373.788 153.442L373.738 153.481L373.705 153.508L373.696 153.515L373.685 153.523L373.602 153.588L373.572 153.611L373.569 153.614C373.525 153.648 373.478 153.684 373.428 153.722L373.417 153.729L373.37 153.765L373.284 153.831L373.264 153.845C373.22 153.879 373.17 153.914 373.123 153.95L373.115 153.955L373.106 153.962C372.993 154.045 372.871 154.134 372.741 154.229L372.716 154.246L372.661 154.287L372.63 154.308L372.622 154.315L372.597 154.332L372.547 154.367L372.522 154.386L372.505 154.397L372.469 154.422L372.431 154.451L372.409 154.466L372.386 154.482L372.339 154.514L372.306 154.537L372.292 154.548L372.262 154.568L372.204 154.61L372.179 154.627L372.17 154.632L372.14 154.654L372.062 154.708L372.046 154.719C385.039 146.558 408.263 129.272 423.562 117.399C424.166 116.931 424.276 116.06 423.807 115.456C423.339 114.852 422.468 114.743 421.864 115.211C406.042 127.49 381.697 145.613 369.168 153.25L374.073 153.212L374.042 153.238L374.034 153.243ZM367.139 111.474L328.997 112.557C328.235 112.579 327.596 111.976 327.574 111.212C327.554 110.448 328.155 109.81 328.919 109.789L367.061 108.706C367.825 108.684 368.462 109.287 368.484 110.051C368.507 110.815 367.903 111.453 367.139 111.474Z" fill="#AC2310"/>
<path fill-rule="evenodd" clip-rule="evenodd" d="M405.672 115.701C411.248 102.922 437.439 92.0648 437.439 92.0648L426.817 92.9233C415.006 98.2902 406.287 107.62 402.858 111.687C401.551 111.863 398.298 112.359 398.244 112.958C398.178 113.709 397.724 126.32 397.724 126.32C397.766 126.34 397.807 126.36 397.848 126.38L397.482 126.404C390.939 138.513 393.32 155.678 383.981 165.995C381.023 169.261 377.154 172.331 372.923 173.737C368.007 175.369 362.903 175.295 357.802 174.995C356.454 174.916 353.178 174.677 351.53 174.555C350.918 174.511 350.328 174.784 349.965 175.278C348.553 177.206 344.939 182.142 343.18 184.541C342.61 185.319 342.687 186.396 343.363 187.084C345.786 189.55 351.275 195.139 353.142 197.036C353.546 197.448 354.125 197.637 354.695 197.543C355.775 197.377 357.495 197.097 358.14 196.911C361.893 195.828 365.592 194.557 369.201 193.061C379.525 188.784 390.44 182.042 394.936 171.385C397.562 165.159 397.959 158.514 397.93 151.849C397.905 145.973 397.218 139.79 398.445 133.99C398.921 131.734 399.982 129.621 401.027 127.584C401.051 127.537 401.148 127.38 401.27 127.175C406.193 126.999 408.468 120.712 408.468 120.712L405.672 115.701Z" fill="black"/>
<path fill-rule="evenodd" clip-rule="evenodd" d="M355.919 153.272L365.919 108.771C365.919 108.771 375.418 108.206 381.056 107.19C381.056 107.19 394.887 102.692 404.596 105.892C406.175 106.412 411.05 109.08 414.371 115.489C415.757 118.165 411.187 119.902 405.917 115.489C404.84 114.587 402.771 113.541 400.619 113.361C400.619 113.361 407.342 118.621 400.619 123.036C400.619 123.036 401.998 127.721 396.171 128.697C396.171 128.697 397.038 135.702 386.345 142.457C383.283 144.393 359.503 154.05 355.919 153.272Z" fill="#FFC3BB"/>
<path fill-rule="evenodd" clip-rule="evenodd" d="M398.069 128.159C397.181 125.596 395.225 124.065 393.339 123.169C391.158 122.133 389.093 121.969 389.093 121.969C388.483 121.918 387.949 122.372 387.899 122.982C387.849 123.591 388.303 124.126 388.913 124.177C388.913 124.177 390.589 124.347 392.388 125.17C395.195 126.454 396.171 128.697 396.171 128.697C396.916 128.572 397.542 128.387 398.069 128.159ZM402.222 121.725C401.018 119.634 399.148 118.283 397.253 117.425C394.145 116.018 391.004 115.959 391.004 115.959C390.393 115.947 389.887 116.433 389.874 117.044C389.862 117.656 390.348 118.162 390.96 118.174C390.96 118.174 393.663 118.232 396.339 119.444C398.04 120.213 400.619 123.036 400.619 123.036C401.275 122.605 401.803 122.166 402.222 121.725ZM404.429 114.515C404.409 114.327 404.341 114.142 404.221 113.979C400.785 109.285 393.248 108.982 393.248 108.982C392.637 108.962 392.124 109.442 392.104 110.053C392.085 110.664 392.564 111.176 393.176 111.196C393.176 111.196 395.51 111.276 398.016 112.207C399.446 112.738 400.619 113.361 400.619 113.361C402.004 113.476 403.354 113.951 404.429 114.515Z" fill="#1C1C1C"/>
<path fill-rule="evenodd" clip-rule="evenodd" d="M473.45 90.4844C473.45 90.4844 462.486 91.128 446.765 100.298C441.872 103.152 429.91 111.089 415.388 115.546C409.873 117.238 407.198 115.983 405.336 116.541L407.408 121.48C407.408 121.48 416.682 120.518 420.171 119.258C420.171 119.258 464.052 91.6339 473.45 90.4844Z" fill="black"/>
<path d="M431.169 319.662H535.05V393.813H431.169V319.662Z" fill="#FFD798"/>
<path fill-rule="evenodd" clip-rule="evenodd" d="M514.834 393.816H517.049V319.662H514.834V393.816ZM466.194 319.662V358.114L472.604 353.545L478.938 358.114V319.662H466.194ZM520.834 319.662V345.348L525.909 337.618L529.392 340.886V319.662H520.834Z" fill="#F8BB61"/>
<path fill-rule="evenodd" clip-rule="evenodd" d="M161.706 170.484H233.384V54.6897H59.3749V170.484H134.694V200.3H124.952V208.239H171.368V200.3H161.706V170.484Z" fill="#A3A8AE"/>
<path fill-rule="evenodd" clip-rule="evenodd" d="M63.9663 54.6897V170.484H139.286V200.3H129.543V208.239H171.368V200.3H161.706V170.484H233.384V54.6897H63.9663Z" fill="#E4E4E6"/>
<path d="M71.978 63.5452H224.713V158.822H71.978V63.5452Z" fill="white"/>
<path fill-rule="evenodd" clip-rule="evenodd" d="M139.244 200.059H135.495C135.691 200.232 135.949 200.337 136.229 200.337L161.665 200.059V198.121H139.244V200.059ZM139.244 172.717H161.665V170.501H139.244V172.717Z" fill="#A3A8AE"/>
<path d="M118.236 20H205.026V126.337H118.236V20Z" fill="#FFF3EB"/>
<path d="M139.721 54.1339C132.173 54.1339 126.054 48.0149 126.054 40.4668C126.054 32.9187 132.173 26.7997 139.721 26.7997C147.269 26.7997 153.388 32.9187 153.388 40.4668C153.388 48.0149 147.269 54.1339 139.721 54.1339Z" fill="#1C1C1C"/>
<path fill-rule="evenodd" clip-rule="evenodd" d="M150.745 48.5435C148.161 45.9666 144.476 44.3527 140.382 44.3527C135.899 44.3527 131.897 46.2923 129.308 49.3144C131.814 52.2626 135.553 54.1338 139.721 54.1338C144.246 54.1338 148.256 51.9322 150.745 48.5435Z" fill="#FFCFC8"/>
<path d="M140.024 42.6241C137.382 42.6241 135.241 40.4828 135.241 37.8413C135.241 35.1998 137.382 33.0584 140.024 33.0584C142.665 33.0584 144.807 35.1998 144.807 37.8413C144.807 40.4828 142.665 42.6241 140.024 42.6241Z" fill="#FFCFC8"/>
<path fill-rule="evenodd" clip-rule="evenodd" d="M144.805 37.8711V37.8412C144.805 35.2015 142.662 33.0583 140.022 33.0583C137.383 33.0583 135.24 35.2015 135.24 37.8412V37.8675C138.483 37.8958 140.022 34.5219 140.022 34.5219C140.881 37.2921 143.387 37.8091 144.805 37.8711Z" fill="black"/>
<path fill-rule="evenodd" clip-rule="evenodd" d="M129.405 114.112H189.167V117.507H129.405V114.112ZM129.405 106.924H189.167V110.32H129.405V106.924ZM129.405 99.9489H189.167V103.344H129.405V99.9489ZM131.759 90.4538H196.364V95.9689H131.759V90.4538ZM129.405 80.2066H189.167V83.602H129.405V80.2066ZM129.405 73.0191H189.167V76.4145H129.405V73.0191ZM129.405 66.0438H189.167V69.4392H129.405V66.0438ZM150.585 53.9843H196.364V59.4994H150.585V53.9843ZM158.663 43.7326H194.824V46.1973H158.663V43.7326ZM167.937 38.8672H194.824V41.3322H167.937V38.8672ZM160.77 33.6496H194.824V36.1143H160.77V33.6496ZM157.018 28.5859H194.824V31.0509H157.018V28.5859Z" fill="#1C1C1C"/>
<path d="M78.3327 101.503H148.015V141.991H78.3327V101.503Z" fill="#A8CFCC"/>
<path fill-rule="evenodd" clip-rule="evenodd" d="M78.3335 104.16L112.554 127.255C112.93 127.508 113.421 127.508 113.794 127.255L148.015 104.168V101.503H148.006L113.174 125.001L78.3556 101.503H78.3335V104.16Z" fill="#82B5B2"/>
<path fill-rule="evenodd" clip-rule="evenodd" d="M162.486 153.226L167.655 147.338L161.113 141.595L165.912 136.127L141.704 129.771L151.144 152.951L155.944 147.484L162.486 153.226Z" fill="#1C1C1C"/>
</g>
<defs>
<linearGradient id="paint0_linear_1_114" x1="434.273" y1="244.009" x2="193.181" y2="329.178" gradientUnits="userSpaceOnUse">
<stop stop-color="#FAA296"/>
<stop offset="1" stop-color="#E45A49"/>
</linearGradient>
<linearGradient id="paint1_linear_1_114" x1="473.199" y1="105.744" x2="614.449" y2="188.61" gradientUnits="userSpaceOnUse">
<stop stop-color="#EF6554"/>
<stop offset="0.58" stop-color="#E24B39"/>
<stop offset="0.8" stop-color="#D93420"/>
<stop offset="1" stop-color="#D11F0A"/>
</linearGradient>
<clipPath id="clip0_1_114">
<rect width="561" height="394" fill="white"/>
</clipPath>
</defs>
</svg>
