<svg width="287" height="82" viewBox="0 0 287 82" fill="none" xmlns="http://www.w3.org/2000/svg">
<path d="M26.1724 37V38H27.1724H35.7644H36.7644V37V2.96802V1.96802H35.7644H27.1724H26.1724V2.96802V37ZM40.7974 37V38H41.7974H50.3894H51.3894V37V20.9819L64.4836 37.6185L64.7839 38H65.2694H71.6534H72.6534V37V2.96802V1.96802H71.6534H63.0614H62.0614V2.96802V19.4328L48.5825 2.34862L48.2822 1.96802H47.7974H41.7974H40.7974V2.96802V37ZM87.0878 37.3524L87.3317 38H88.0237H95.7997H96.4889L96.7342 37.3559L109.694 3.3239L110.211 1.96802H108.76H99.7837H99.077L98.8411 2.63408L92.0294 21.8613L85.3198 2.63847L85.0858 1.96802H84.3757H75.2077H73.7625L74.2718 3.32044L87.0878 37.3524ZM111.344 37V38H112.344H118.16H119.16H120.936H121.936H137.592H138.592V37V29.752V28.752H137.592H121.936V24.176H135.864H136.864V23.176V16.12V15.12H135.864H121.936V11.216H137.304H138.304V10.216V2.96802V1.96802H137.304H121.936H120.936H119.16H118.16H112.344H111.344V2.96802V37ZM141.438 37V38H142.438H151.03H152.03V37V20.9819L165.124 37.6185L165.425 38H165.91H172.294H173.294V37V2.96802V1.96802H172.294H163.702H162.702V2.96802V19.4328L149.223 2.34862L148.923 1.96802H148.438H142.438H141.438V2.96802V37ZM185.6 37V38H186.6H195.192H196.192V37V11.36H205.608H206.608V10.36V2.96802V1.96802H205.608H176.184H175.184V2.96802V10.36V11.36H176.184H185.6V37ZM208.516 37V38H209.516H218.108H219.108V37V2.96802V1.96802H218.108H209.516H208.516V2.96802V37ZM233.525 37.3524L233.769 38H234.461H242.237H242.926L243.172 37.3559L256.132 3.3239L256.648 1.96802H255.197H246.221H245.515L245.279 2.63408L238.467 21.8613L231.757 2.63847L231.523 1.96802H230.813H221.645H220.2L220.709 3.32044L233.525 37.3524ZM257.782 37V38H258.782H264.598H265.598H267.374H268.374H284.03H285.03V37V29.752V28.752H284.03H268.374V24.176H282.302H283.302V23.176V16.12V15.12H282.302H268.374V11.216H283.742H284.742V10.216V2.96802V1.96802H283.742H268.374H267.374H265.598H264.598H258.782H257.782V2.96802V37Z" fill="white" stroke="black" stroke-width="2"/>
<path d="M1.10211 79V80H2.10211H10.6941H11.6941V79V62.9819L24.7883 79.6185L25.0886 80H25.5741H31.9581H32.9581V79V44.968V43.968H31.9581H23.3661H22.3661V44.968V61.4328L8.88719 44.3486L8.5869 43.968H8.10211H2.10211H1.10211V44.968V79ZM37.0084 79V80H38.0084H43.8244H44.8244H46.6004H47.6004H63.2564H64.2564V79V71.752V70.752H63.2564H47.6004V66.176H61.5284H62.5284V65.176V58.12V57.12H61.5284H47.6004V53.216H62.9684H63.9684V52.216V44.968V43.968H62.9684H47.6004H46.6004H44.8244H43.8244H38.0084H37.0084V44.968V79ZM75.549 79.3025L75.7703 80H76.5021H83.4621H84.2121L84.4221 79.2801L89.3745 62.3047L94.3586 79.2817L94.5695 80H95.3181H102.23H102.961L103.183 79.3037L114.031 45.2717L114.446 43.968H113.078H104.63H103.884L103.671 44.6836L98.6954 61.4546L93.7818 44.6868L93.5711 43.968H92.8221H85.9581H85.2091L84.9985 44.6868L80.1087 61.3732L75.1568 44.6836L74.9445 43.968H74.1981H65.7021H64.3356L64.749 45.2705L75.549 79.3025ZM118.185 79.1555L118.189 79.1576C120.447 80.0813 123.061 80.528 126.008 80.528C130.426 80.528 134.002 79.5735 136.607 77.5326C139.281 75.4632 140.592 72.5304 140.592 68.872C140.592 67.0366 140.287 65.4102 139.632 64.0279C139 62.6937 138.148 61.5683 137.071 60.6693C136.073 59.8097 134.971 59.1044 133.768 58.5546C132.617 58.0285 131.449 57.5678 130.264 57.1726C129.159 56.7937 128.134 56.4309 127.188 56.0843C126.333 55.7289 125.682 55.3466 125.208 54.9518C124.867 54.6671 124.704 54.3276 124.704 53.848C124.704 53.4384 124.85 53.1625 125.238 52.9223C125.692 52.6414 126.412 52.448 127.496 52.448C128.603 52.448 129.604 52.6739 130.516 53.1158C131.451 53.5693 132.402 54.2643 133.365 55.2271L134.069 55.9311L134.776 55.2302L140.248 49.8062L140.93 49.1306L140.283 48.4218C138.825 46.8253 136.982 45.5926 134.779 44.7116C132.57 43.8278 130.171 43.392 127.592 43.392C125.016 43.392 122.712 43.827 120.703 44.7275C118.695 45.6275 117.089 46.9246 115.92 48.6255L115.916 48.6314L115.912 48.6373C114.76 50.3652 114.208 52.4226 114.208 54.76C114.208 56.5641 114.514 58.1516 115.178 59.4792C115.812 60.7469 116.648 61.8197 117.691 62.6824L117.697 62.6877L117.703 62.6929C118.722 63.5079 119.825 64.2035 121.011 64.7795L121.026 64.7869L121.042 64.7938C122.219 65.317 123.382 65.7759 124.532 66.17L124.548 66.1754L124.564 66.1804C125.683 66.5224 126.683 66.8923 127.567 67.2885L127.586 67.2969L127.605 67.3045C128.482 67.6553 129.132 68.0594 129.593 68.495L129.604 68.5054L129.616 68.5154C129.969 68.8296 130.144 69.2093 130.144 69.736C130.144 70.2193 129.953 70.6057 129.41 70.9549C128.868 71.2915 127.982 71.52 126.632 71.52C125.068 71.52 123.701 71.2263 122.511 70.6613C121.288 70.0484 120.118 69.1647 119.006 67.9918L118.296 67.2437L117.57 67.976L112.146 73.448L111.47 74.1303L112.124 74.8334C113.937 76.7809 115.957 78.2301 118.185 79.1555Z" fill="white" stroke="black" stroke-width="2"/>
<rect x="1" y="2" width="22" height="36" rx="2" fill="white" stroke="black" stroke-width="2"/>
<rect x="144" y="43" width="142" height="38" rx="2" fill="white" stroke="black" stroke-width="2"/>
</svg>
